<?xml version="1.0" standalone="no"?>
<!DOCTYPE svg PUBLIC "-//W3C//DTD SVG 20010904//EN"
 "http://www.w3.org/TR/2001/REC-SVG-20010904/DTD/svg10.dtd">
<svg version="1.0" xmlns="http://www.w3.org/2000/svg"
 width="236.000000pt" height="236.000000pt" viewBox="0 0 236.000000 236.000000"
 preserveAspectRatio="xMidYMid meet">

<g transform="translate(0.000000,236.000000) scale(0.100000,-0.100000)"
fill="#000000" stroke="none">
<path d="M0 1180 l0 -1180 1180 0 1180 0 0 1180 0 1180 -1180 0 -1180 0 0
-1180z m996 957 c-10 -7 -28 -23 -40 -36 -12 -13 -31 -35 -43 -49 -13 -13 -25
-40 -29 -58 -3 -19 -11 -37 -16 -40 -6 -4 -6 -9 2 -14 7 -4 -4 -13 -29 -24
-52 -20 -54 -37 -3 -24 57 16 149 20 237 10 82 -10 113 -7 56 4 -36 8 -48 21
-32 37 8 8 20 8 44 -1 l32 -12 -25 20 c-14 11 -20 20 -14 20 6 0 24 -10 40
-22 16 -12 30 -23 32 -24 2 -1 5 -14 6 -29 3 -21 0 -25 -13 -20 -13 5 -14 4
-3 -6 6 -7 12 -21 12 -31 0 -10 -6 -18 -12 -19 -10 0 -10 -2 -1 -6 41 -16
-102 -61 -153 -49 -40 10 -27 26 20 26 l45 0 -10 33 c-21 74 -103 101 -151 50
-14 -16 -28 -36 -31 -45 -8 -21 -23 -22 -57 -3 -37 21 -43 18 -36 -15 6 -30
-2 -38 -20 -20 -17 17 -82 -60 -104 -121 -40 -117 -36 -237 13 -334 11 -22 47
-68 81 -104 l61 -64 -54 28 c-67 33 -143 111 -177 182 -24 49 -26 61 -22 146
6 104 39 207 70 215 10 2 15 9 11 16 -24 38 -11 76 36 105 22 14 50 43 62 65
12 22 37 56 54 75 18 20 39 50 48 67 17 33 54 62 96 74 36 11 39 11 17 -3z
m471 -54 c36 -26 56 -58 50 -76 -2 -6 14 -24 35 -39 21 -16 40 -40 44 -55 4
-16 27 -53 53 -83 25 -30 35 -46 22 -35 -22 18 -23 18 -14 1 6 -10 7 -35 2
-60 -8 -46 -4 -60 9 -26 8 22 10 20 36 -26 84 -150 51 -344 -80 -463 -77 -71
-132 -86 -291 -84 -196 3 -243 23 -243 103 0 59 22 81 88 88 38 3 60 -1 102
-21 51 -25 85 -26 77 -3 -7 20 -81 39 -166 42 -88 4 -108 12 -97 39 5 15 17
16 89 11 160 -13 282 -27 317 -36 56 -16 131 -12 152 7 22 19 25 41 3 23 -18
-15 -97 -9 -255 19 -63 12 -164 26 -225 31 -114 11 -132 18 -122 44 14 37 330
8 502 -45 37 -11 69 -18 71 -16 8 8 -115 57 -190 77 -79 20 -242 40 -327 40
-34 0 -49 4 -49 13 0 27 26 37 105 39 l80 2 -69 3 -68 4 6 32 c11 54 40 101
71 116 17 8 36 23 43 33 13 18 14 18 33 -6 20 -25 107 -71 117 -61 3 3 0 5 -7
5 -7 0 -9 5 -5 12 5 8 2 9 -9 5 -10 -3 -17 -2 -17 4 0 6 -4 8 -9 5 -10 -6 -22
17 -27 51 -2 15 8 30 31 47 30 23 41 26 104 22 38 -2 85 -9 105 -16 27 -8 40
-9 53 0 17 11 17 11 -1 6 -10 -4 -24 -2 -30 3 -15 13 -58 19 -133 20 -67 1
-81 13 -35 29 17 7 21 11 10 11 -26 1 -22 30 5 41 18 7 19 9 4 9 -28 1 -17 35
13 41 17 3 10 6 -25 10 -48 5 -50 6 -48 34 3 37 32 66 58 59 11 -3 35 -16 52
-30z m-259 -15 c7 -7 12 -32 12 -57 l0 -45 -30 29 c-38 36 -41 85 -5 85 6 0
16 -5 23 -12z m-14 -91 c11 -15 17 -30 13 -33 -9 -9 -88 56 -82 66 9 14 48 -5
69 -33z m-134 -111 c0 -11 -19 -15 -25 -6 -3 5 1 10 9 10 9 0 16 -2 16 -4z
m225 -56 c3 -6 -1 -7 -9 -4 -18 7 -21 14 -7 14 6 0 13 -4 16 -10z m-565 -310
c-12 -16 -24 -30 -26 -30 -7 0 5 20 24 43 24 27 25 20 2 -13z m253 -457 l28
-30 -28 -51 c-15 -29 -30 -52 -34 -52 -12 0 -78 156 -85 200 l-7 45 49 -42
c27 -23 62 -54 77 -70z m-171 46 c-17 -39 -52 -83 -52 -65 0 9 40 88 53 104
18 23 18 5 -1 -39z m629 -32 c-38 -52 -74 -85 -164 -152 l-37 -27 -16 38 c-9
22 -25 52 -36 67 -11 16 -18 31 -15 33 8 8 301 103 305 99 2 -2 -14 -28 -37
-58z m564 -118 c100 -39 171 -76 163 -85 -3 -2 -34 9 -69 25 -35 16 -98 40
-139 54 -67 22 -234 98 -248 112 -7 7 157 -52 293 -106z m-1345 86 c0 -6 -56
-35 -67 -35 -4 1 8 9 27 20 39 22 40 22 40 15z m107 -57 c-3 -8 -6 -5 -6 6 -1
11 2 17 5 13 3 -3 4 -12 1 -19z m-237 -3 c0 -2 -28 -13 -62 -24 -35 -10 -72
-22 -83 -26 -20 -6 -20 -6 0 6 18 11 119 47 138 48 4 1 7 -1 7 -4z m-221 -88
c-13 -13 -26 -21 -29 -19 -5 4 38 42 48 42 3 0 -6 -10 -19 -23z m509 6 c-10
-2 -26 -2 -35 0 -10 3 -2 5 17 5 19 0 27 -2 18 -5z m65 0 c-7 -2 -21 -2 -30 0
-10 3 -4 5 12 5 17 0 24 -2 18 -5z m-635 -48 c-12 -21 -28 -59 -35 -84 l-13
-46 6 50 c3 28 16 67 30 88 32 49 42 42 12 -8z m504 33 c-9 -9 -7 -14 6 -24
16 -12 15 -13 -4 -14 -25 0 -74 -52 -104 -108 -10 -20 -29 -48 -40 -62 -26
-32 65 144 97 188 13 17 31 32 41 32 12 0 13 -3 4 -12z m453 -8 c29 -32 53
-34 75 -8 22 26 25 16 9 -31 -9 -26 -16 -31 -42 -31 -26 0 -37 8 -57 38 -33
49 -34 52 -17 52 7 0 22 -9 32 -20z m-89 -74 c27 -24 45 -48 41 -52 -4 -5 -14
-4 -21 1 -7 6 -32 24 -55 42 -23 17 -47 33 -53 35 -7 3 -9 12 -5 22 9 22 27
12 93 -48z m1108 -71 c4 -63 4 -66 -6 -32 -10 33 -28 51 -28 27 0 -30 25 -120
41 -146 25 -41 24 -56 -1 -25 -20 23 -20 23 -20 2 0 -22 26 -81 35 -81 3 0 2
12 -1 28 -5 20 -4 24 5 17 13 -13 34 -117 29 -148 -2 -15 -12 -1 -31 48 -16
39 -37 77 -47 85 -28 22 -46 169 -30 247 7 32 15 62 17 66 13 22 32 -24 37
-88z m-1054 55 c0 -5 -2 -10 -4 -10 -3 0 -8 5 -11 10 -3 6 -1 10 4 10 6 0 11
-4 11 -10z m53 -4 c12 -10 17 -24 15 -43 -3 -28 -4 -28 -26 15 -23 44 -20 51
11 28z m-118 -37 c25 -23 44 -44 41 -46 -2 -2 -29 8 -60 24 -37 18 -56 33 -56
45 0 29 28 21 75 -23z m90 -25 c8 -20 15 -46 15 -58 0 -16 -6 -11 -25 21 -14
23 -22 48 -19 57 9 23 12 20 29 -20z m-85 -21 c83 -28 94 -60 18 -49 -57 9
-110 40 -102 61 4 10 13 14 23 10 9 -4 36 -14 61 -22z m-935 -74 c-21 -98 -36
-183 -41 -244 -9 -89 -12 -109 -28 -165 -20 -68 -27 -84 -21 -45 3 17 14 100
24 185 23 183 68 384 78 353 2 -6 -3 -44 -12 -84z m908 17 c66 -26 79 -36 50
-36 -35 0 -113 31 -113 46 0 17 -6 18 63 -10z m-529 -41 c-14 -19 -31 -35 -37
-35 -6 0 4 16 23 35 19 19 36 35 37 35 2 0 -8 -16 -23 -35z m-14 -75 c0 -16
-17 -19 -35 -6 -24 18 -11 40 16 26 10 -6 19 -15 19 -20z m290 26 c0 -2 -8
-10 -17 -17 -16 -13 -17 -12 -4 4 13 16 21 21 21 13z m-380 -30 c0 -2 -8 -10
-17 -17 -16 -13 -17 -12 -4 4 13 16 21 21 21 13z m135 -6 c3 -5 2 -10 -4 -10
-5 0 -13 5 -16 10 -3 6 -2 10 4 10 5 0 13 -4 16 -10z m215 -4 c0 -2 -8 -10
-17 -17 -16 -13 -17 -12 -4 4 13 16 21 21 21 13z m394 -51 c26 -24 55 -47 65
-50 29 -9 68 -86 75 -150 9 -77 22 -110 52 -130 15 -10 24 -25 24 -41 0 -33
-12 -29 -159 50 -112 60 -171 103 -171 125 0 16 36 14 73 -5 26 -13 22 -7 -22
33 l-53 48 22 20 c15 14 33 18 63 17 36 -2 40 -1 26 10 -21 17 -49 72 -49 98
0 11 1 20 3 20 2 0 25 -20 51 -45z m-605 16 c16 -10 6 -31 -14 -31 -14 0 -27
24 -18 34 8 8 15 7 32 -3z m-199 -5 c0 -2 -8 -10 -17 -17 -16 -13 -17 -12 -4
4 13 16 21 21 21 13z m1880 -190 c7 -7 10 -2 11 15 0 19 26 -72 28 -103 2 -23
-18 -2 -37 40 -12 26 -31 63 -43 84 -11 20 -22 53 -25 75 -5 33 -1 29 25 -31
17 -38 35 -74 41 -80z"/>
<path d="M718 1847 c-25 -20 -32 -40 -29 -76 1 -8 14 -2 36 18 20 17 39 31 43
31 4 0 13 12 19 28 12 26 12 27 -5 7 -29 -33 -76 -71 -67 -55 5 8 17 21 27 28
18 13 25 42 11 42 -5 0 -20 -10 -35 -23z"/>
<path d="M1158 1803 c7 -3 16 -2 19 1 4 3 -2 6 -13 5 -11 0 -14 -3 -6 -6z"/>
<path d="M636 1465 c-3 -9 1 -28 9 -43 14 -27 14 -27 8 13 -7 48 -9 51 -17 30z"/>
<path d="M1478 2003 c7 -3 16 -2 19 1 4 3 -2 6 -13 5 -11 0 -14 -3 -6 -6z"/>
<path d="M1468 1953 c7 -3 16 -2 19 1 4 3 -2 6 -13 5 -11 0 -14 -3 -6 -6z"/>
<path d="M1401 1829 c-18 -11 -35 -29 -38 -40 -4 -14 -11 -18 -27 -14 -17 5
-16 3 4 -9 22 -12 151 -36 196 -36 26 0 17 59 -15 91 -35 35 -72 37 -120 8z
m109 -13 c0 -3 -4 -8 -10 -11 -5 -3 -10 -1 -10 4 0 6 5 11 10 11 6 0 10 -2 10
-4z"/>
<path d="M1600 1836 c0 -3 9 -10 20 -16 11 -6 20 -8 20 -6 0 3 -9 10 -20 16
-11 6 -20 8 -20 6z"/>
<path d="M1625 1780 c-3 -5 -1 -10 4 -10 6 0 11 5 11 10 0 6 -2 10 -4 10 -3 0
-8 -4 -11 -10z"/>
<path d="M1610 1750 c-9 -6 -10 -10 -3 -10 6 0 15 5 18 10 8 12 4 12 -15 0z"/>
<path d="M1590 1713 c-40 -5 -58 -25 -32 -35 29 -11 50 -9 66 8 17 16 21 35 9
32 -5 0 -24 -3 -43 -5z"/>
<path d="M1448 1693 c7 -3 16 -2 19 1 4 3 -2 6 -13 5 -11 0 -14 -3 -6 -6z"/>
<path d="M1298 1583 c12 -2 32 -2 45 0 12 2 2 4 -23 4 -25 0 -35 -2 -22 -4z"/>
<path d="M1430 1565 c93 -22 181 -53 208 -73 13 -10 27 -34 32 -53 8 -33 8
-33 9 -6 2 43 -47 82 -137 111 -43 13 -99 27 -127 30 -45 5 -43 4 15 -9z"/>
<path d="M1685 1361 c-8 -17 -20 -31 -25 -31 -6 0 -10 -4 -10 -10 0 -5 7 -7
15 -3 17 6 50 62 41 70 -2 3 -12 -9 -21 -26z"/>
</g>
</svg>
